<svg width="1800" height="960" viewBox="0 0 1800 960" fill="none" xmlns="http://www.w3.org/2000/svg">
<rect width="1800" height="960" fill="#121212"/>
<path d="M415.472 404.795C409.859 399.329 403.387 395.007 395.953 391.876C388.571 388.746 380.632 387.206 372.137 387.206H316.566V550.62H353.681V507.046H372.036C380.531 507.046 388.47 505.506 395.852 502.376C403.285 499.246 409.758 494.973 415.37 489.458C420.983 483.992 425.332 477.583 428.517 470.329C431.703 463.075 433.27 455.274 433.27 446.977C433.27 438.68 431.703 431.128 428.517 423.874C425.332 416.62 420.983 410.26 415.37 404.745L415.472 404.795ZM394.335 456.218C393.071 459.1 391.302 461.584 389.127 463.721C386.953 465.857 384.374 467.547 381.441 468.789C378.509 470.031 375.373 470.677 372.036 470.677H353.732V423.774H372.036C375.373 423.774 378.509 424.42 381.441 425.662C384.374 426.904 386.953 428.594 389.127 430.73C391.302 432.867 393.071 435.301 394.335 438.133C395.6 440.916 396.257 443.946 396.257 447.176C396.257 450.405 395.6 453.436 394.335 456.318V456.218Z" fill="#3AC2E9"/>
<path d="M488.335 387.009H451.221V550.672H488.335V387.009Z" fill="#3AC2E9"/>
<path d="M580.667 487.32H616.67C616.366 488.065 616.114 488.811 615.861 489.556C615.658 490.301 615.355 491.046 615.052 491.792C614.141 493.878 613.029 495.965 611.664 498.002C610.905 499.046 610.147 499.99 609.388 500.884C608.63 501.778 607.871 502.673 607.113 503.567C606.203 504.312 605.293 505.058 604.382 505.803C603.472 506.548 602.512 507.293 601.45 508.039C599.781 509.231 597.657 510.324 595.129 511.368C594.067 511.815 593.005 512.163 591.842 512.461C590.73 512.759 589.516 513.057 588.353 513.355C583.246 514.547 578.19 514.547 573.184 513.355C570.605 512.908 568.279 512.262 566.155 511.368C565.093 510.92 564.032 510.424 562.97 509.927C561.908 509.43 560.846 508.784 559.784 508.039C558.874 507.293 557.913 506.548 556.952 505.803C555.992 505.058 555.082 504.312 554.374 503.567C552.857 502.077 551.34 500.238 549.873 498.002C548.356 495.916 547.244 493.878 546.485 491.792C545.424 489.705 544.665 487.419 544.21 484.886C543.755 482.65 543.553 480.215 543.553 477.532V460.639C543.553 458.254 543.755 455.82 544.21 453.286C544.665 450.752 545.424 448.466 546.485 446.38C547.244 444.293 548.356 442.256 549.873 440.169C550.632 439.126 551.34 438.182 551.997 437.287C552.654 436.393 553.463 435.598 554.374 434.853C555.132 433.958 555.992 433.163 556.952 432.418C557.913 431.673 558.874 430.928 559.784 430.182C560.846 429.437 561.908 428.791 562.97 428.294C564.032 427.797 565.093 427.301 566.155 426.853C568.279 425.959 570.605 425.313 573.184 424.866C578.139 423.674 583.196 423.674 588.353 424.866C589.567 425.164 590.73 425.462 591.842 425.76C592.955 426.059 594.067 426.406 595.129 426.853C597.708 427.897 599.781 428.99 601.45 430.182C603.27 431.375 605.141 432.915 607.113 434.853L633.154 409.066C631.485 407.427 629.766 405.886 627.946 404.396C626.125 402.905 624.255 401.514 622.282 400.173C620.159 398.831 618.086 397.639 616.063 396.496C614.04 395.403 611.866 394.409 609.591 393.515C605.192 391.577 600.54 390.186 595.584 389.292C585.775 387.205 575.813 387.205 565.7 389.292C563.273 389.739 560.897 390.285 558.571 390.981C556.245 391.627 554.02 392.521 551.896 393.515C547.244 395.304 542.997 397.539 539.204 400.173C535.108 402.856 531.417 405.787 528.13 409.066C526.462 410.706 524.894 412.395 523.377 414.184C521.86 415.972 520.444 417.811 519.079 419.749C516.5 423.624 514.225 427.748 512.304 432.219C511.393 434.455 510.584 436.691 509.826 438.977C509.067 441.262 508.461 443.597 508.006 445.982C506.944 450.603 506.438 455.472 506.438 460.639V477.532C506.438 480.066 506.539 482.55 506.792 484.985C506.994 487.419 507.449 489.854 508.056 492.189C508.511 494.574 509.118 496.909 509.876 499.195C510.635 501.48 511.444 503.766 512.354 506.002C514.326 510.473 516.551 514.597 519.13 518.473C522.012 522.497 524.995 526.025 528.181 529.155C531.518 532.434 535.21 535.365 539.255 538.048C541.227 539.39 543.249 540.582 545.373 541.725C547.497 542.868 549.671 543.911 551.947 544.955C554.07 545.849 556.295 546.644 558.621 547.29C560.947 547.936 563.324 548.582 565.751 549.178C570.706 550.072 575.712 550.519 580.667 550.519C585.623 550.519 590.78 550.072 595.584 549.178C598.163 548.582 600.539 547.936 602.815 547.29C605.09 546.644 607.366 545.75 609.591 544.706C611.866 543.812 613.99 542.818 616.063 541.675C618.086 540.582 620.159 539.34 622.282 537.999C624.255 536.657 626.125 535.266 627.946 533.776C629.766 532.285 631.485 530.745 633.154 529.105C634.823 527.466 636.441 525.776 638.008 523.988C639.576 522.199 640.992 520.361 642.205 518.423C643.57 516.336 644.834 514.249 646.048 512.163C647.262 510.076 648.323 507.989 649.234 505.902C650.144 503.666 650.953 501.431 651.711 499.095C652.47 496.81 653.077 494.475 653.532 492.09C654.138 489.556 654.442 486.674 654.442 483.395L654.644 450.851H580.667V487.32Z" fill="#3AC2E9"/>
<path d="M746.976 487.32H782.978C782.674 488.065 782.422 488.811 782.169 489.556C781.967 490.301 781.663 491.046 781.36 491.792C780.45 493.878 779.337 495.965 777.972 498.002C777.213 499.046 776.455 499.99 775.696 500.884C774.938 501.778 774.18 502.673 773.421 503.567C772.511 504.312 771.601 505.058 770.691 505.803C769.78 506.548 768.82 507.293 767.758 508.039C766.089 509.231 763.965 510.324 761.437 511.368C760.375 511.815 759.313 512.163 758.15 512.461C757.038 512.759 755.824 513.057 754.661 513.355C749.554 514.547 744.498 514.547 739.492 513.355C736.913 512.908 734.587 512.262 732.463 511.368C731.402 510.92 730.34 510.424 729.278 509.927C728.216 509.43 727.154 508.784 726.092 508.039C725.182 507.293 724.221 506.548 723.261 505.803C722.3 505.058 721.39 504.312 720.682 503.567C719.165 502.077 717.648 500.238 716.181 498.002C714.664 495.916 713.552 493.878 712.794 491.792C711.732 489.705 710.973 487.419 710.518 484.886C710.063 482.65 709.861 480.215 709.861 477.532V460.639C709.861 458.254 710.063 455.82 710.518 453.286C710.973 450.752 711.732 448.466 712.794 446.38C713.552 444.293 714.664 442.256 716.181 440.169C716.94 439.126 717.648 438.182 718.305 437.287C718.963 436.393 719.772 435.598 720.682 434.853C721.44 433.958 722.3 433.163 723.261 432.418C724.221 431.673 725.182 430.928 726.092 430.182C727.154 429.437 728.216 428.791 729.278 428.294C730.34 427.797 731.402 427.301 732.463 426.853C734.587 425.959 736.913 425.313 739.492 424.866C744.447 423.674 749.504 423.674 754.661 424.866C755.875 425.164 757.038 425.462 758.15 425.76C759.263 426.059 760.375 426.406 761.437 426.853C764.016 427.897 766.089 428.99 767.758 430.182C769.578 431.375 771.449 432.915 773.421 434.853L799.462 409.066C797.793 407.427 796.074 405.886 794.254 404.396C792.433 402.905 790.563 401.514 788.591 400.173C786.467 398.831 784.394 397.639 782.371 396.496C780.349 395.403 778.174 394.409 775.899 393.515C771.5 391.577 766.848 390.186 761.892 389.292C752.083 387.205 742.121 387.205 732.008 389.292C729.581 389.739 727.205 390.285 724.879 390.981C722.553 391.627 720.328 392.521 718.204 393.515C713.552 395.304 709.305 397.539 705.512 400.173C701.416 402.856 697.725 405.787 694.439 409.066C692.77 410.706 691.202 412.395 689.685 414.184C688.168 415.972 686.753 417.811 685.387 419.749C682.809 423.624 680.533 427.748 678.612 432.219C677.701 434.455 676.892 436.691 676.134 438.977C675.375 441.262 674.769 443.597 674.314 445.982C673.252 450.603 672.746 455.472 672.746 460.639V477.532C672.746 480.066 672.847 482.55 673.1 484.985C673.302 487.419 673.757 489.854 674.364 492.189C674.819 494.574 675.426 496.909 676.185 499.195C676.943 501.48 677.752 503.766 678.662 506.002C680.634 510.473 682.859 514.597 685.438 518.473C688.32 522.497 691.303 526.025 694.489 529.155C697.826 532.434 701.518 535.365 705.563 538.048C707.535 539.39 709.557 540.582 711.681 541.725C713.805 542.868 715.979 543.911 718.255 544.955C720.378 545.849 722.603 546.644 724.929 547.29C727.255 547.936 729.632 548.582 732.059 549.178C737.014 550.072 742.02 550.519 746.976 550.519C751.931 550.519 757.089 550.072 761.892 549.178C764.471 548.582 766.848 547.936 769.123 547.29C771.398 546.644 773.674 545.75 775.899 544.706C778.174 543.812 780.298 542.818 782.371 541.675C784.394 540.582 786.467 539.34 788.591 537.999C790.563 536.657 792.433 535.266 794.254 533.776C796.074 532.285 797.793 530.745 799.462 529.105C801.131 527.466 802.749 525.776 804.316 523.988C805.884 522.199 807.3 520.361 808.513 518.423C809.878 516.336 811.143 514.249 812.356 512.163C813.57 510.076 814.632 507.989 815.542 505.902C816.452 503.666 817.261 501.431 818.019 499.095C818.778 496.81 819.385 494.475 819.84 492.09C820.447 489.556 820.75 486.674 820.75 483.395L820.952 450.851H746.976V487.32Z" fill="#3AC2E9"/>
<path d="M1025.79 453.484C1026.09 452.291 1026.45 451.149 1026.8 450.055C1027.16 448.962 1027.61 447.82 1028.07 446.627C1028.83 444.54 1029.94 442.503 1031.45 440.417C1032.67 438.628 1034.19 436.839 1035.95 435.1C1036.87 434.206 1037.78 433.411 1038.69 432.765C1039.6 432.119 1040.56 431.374 1041.62 430.629C1043.44 429.436 1045.56 428.244 1047.94 427.051C1050.21 426.157 1052.54 425.511 1054.97 425.064C1059.77 423.872 1064.78 423.872 1069.88 425.064C1072.31 425.511 1074.64 426.157 1076.91 427.051C1079.34 428.244 1081.41 429.436 1083.23 430.629C1084.3 431.374 1085.26 432.07 1086.17 432.765C1087.08 433.461 1087.89 434.206 1088.64 435.1C1090.62 436.74 1092.13 438.529 1093.14 440.417C1094.36 442.205 1095.57 444.292 1096.78 446.627C1097.69 448.863 1098.35 451.149 1098.81 453.533L1135.01 446.18C1133.95 441.162 1132.53 436.541 1130.71 432.417C1128.74 427.846 1126.47 423.722 1123.94 420.195C1121.21 416.17 1118.22 412.543 1114.89 409.314C1111.55 406.035 1107.86 403.103 1103.81 400.42C1100.17 397.886 1096.03 395.7 1091.37 393.762C1089.1 392.868 1086.82 392.073 1084.45 391.328C1082.12 390.583 1079.74 389.986 1077.32 389.539C1067.36 387.452 1057.39 387.452 1047.43 389.539C1045.01 389.986 1042.63 390.583 1040.3 391.328C1037.98 392.073 1035.65 392.868 1033.38 393.762C1028.88 395.7 1024.63 397.936 1020.68 400.42C1016.59 403.252 1012.95 406.184 1009.76 409.314C1008.09 410.953 1006.48 412.643 1004.86 414.431C1003.24 416.22 1001.87 418.158 1000.66 420.195C999.295 422.133 998.031 424.12 996.919 426.207C995.756 428.293 994.694 430.38 993.632 432.417C992.722 434.653 991.913 436.889 991.256 439.224C990.598 441.51 989.941 443.845 989.334 446.23C988.424 451.099 987.969 456.018 987.969 460.887V477.78C987.969 482.947 988.424 487.866 989.334 492.437C990.548 497.455 992.014 502.076 993.683 506.2C995.655 510.522 998.031 514.646 1000.76 518.67C1003.34 522.695 1006.37 526.223 1009.86 529.353C1011.53 530.992 1013.25 532.582 1015.07 534.122C1016.89 535.663 1018.81 537.054 1020.79 538.246C1022.91 539.588 1025.03 540.78 1027.16 541.923C1029.28 543.016 1031.4 544.109 1033.48 545.153C1035.75 546.047 1038.03 546.842 1040.4 547.587C1042.73 548.332 1045.11 548.929 1047.53 549.376C1049.96 549.823 1052.39 550.171 1054.92 550.469C1057.39 550.767 1059.92 550.916 1062.5 550.916C1065.08 550.916 1067.56 550.767 1069.99 550.469C1072.41 550.171 1074.89 549.823 1077.47 549.376C1079.9 548.929 1082.27 548.332 1084.6 547.587C1086.92 546.842 1089.25 546.047 1091.53 545.153C1093.65 544.109 1095.72 543.016 1097.85 541.923C1099.97 540.83 1101.99 539.588 1103.96 538.246C1106.09 537.054 1108.06 535.712 1109.83 534.122C1111.65 532.582 1113.37 530.992 1115.04 529.353C1116.71 527.713 1118.27 526.024 1119.79 524.235C1121.31 522.446 1122.72 520.608 1124.09 518.67C1126.97 514.547 1129.2 510.373 1130.87 506.2C1132.84 501.927 1134.25 497.306 1135.16 492.437L1098.96 485.332C1098.66 486.524 1098.35 487.667 1098.05 488.76C1097.75 489.853 1097.39 490.946 1096.94 491.99C1096.33 493.182 1095.77 494.275 1095.22 495.318C1094.71 496.362 1094.05 497.306 1093.3 498.2C1092.69 499.244 1092.03 500.188 1091.27 501.082C1090.51 501.976 1089.71 502.871 1088.8 503.765C1086.98 505.554 1085.15 507.044 1083.39 508.237C1081.26 509.727 1079.14 510.82 1077.06 511.565C1075.85 512.013 1074.69 512.41 1073.58 512.808C1072.46 513.155 1071.25 513.503 1070.09 513.801C1064.98 514.696 1059.97 514.696 1055.17 513.801C1053.96 513.503 1052.79 513.155 1051.68 512.808C1050.57 512.46 1049.35 512.013 1048.19 511.565C1046.07 510.82 1043.94 509.727 1041.87 508.237C1040.81 507.491 1039.85 506.746 1038.94 506.001C1038.03 505.255 1037.12 504.51 1036.21 503.765C1035.45 502.871 1034.69 501.976 1033.93 501.082C1033.17 500.188 1032.42 499.244 1031.66 498.2C1030.44 496.561 1029.33 494.474 1028.27 491.99C1027.81 490.946 1027.41 489.853 1027 488.76C1026.65 487.667 1026.3 486.524 1025.99 485.332C1025.54 482.947 1025.34 480.463 1025.34 477.78V460.887C1025.34 458.502 1025.54 456.067 1025.99 453.533L1025.79 453.484Z" fill="#3AC2E9"/>
<path d="M1190.08 387.009H1152.96V550.672H1176.02H1260.67V514.203H1190.08V487.075H1260.67V450.606H1190.08V423.726H1260.67V387.258H1190.08V387.009Z" fill="#3AC2E9"/>
<path d="M1315.88 387.009H1278.77V550.672H1372.47V514.203H1315.88V387.009Z" fill="#3AC2E9"/>
<path d="M1427.68 514.203V387.009H1390.57V550.672H1484.26V514.203H1427.68Z" fill="#3AC2E9"/>
<path d="M993.178 358.438H923.398L856.248 498.748H900.745L828.437 601L972.396 472.962L916.471 469.534L993.178 358.438Z" fill="#E6FF03"/>
<path d="M889.065 411.949L878.547 358.438H819.942L862.771 465.459L889.065 411.949Z" fill="#E6FF03"/>
</svg>
